# xmcd
#
# Track frame offsets: 
#        150
#        33200
#        49717
#        96075
#        131562
#        157940
#        169327
#        186187
#        219997
#
# Disc length: 3306 seconds
#
# Revision: 5
# Processed by: cddbd v1.5.2PL0 Copyright (c) Steve Scherf et al.
# Submitted via: ExactAudioCopy v0.95b3
#
DISCID=700ce809
DTITLE=Walter Trout and The Free Radicals - Face The Music (Live On Tour
DTITLE=)
DYEAR=2000
DGENRE=Blues
TTITLE0=Got A Broken Heart (Live)
TTITLE1=Hard Time Blues (Live)
TTITLE2=The Reason I'm Gone (Live)
TTITLE3=Come Home (Live)
TTITLE4=Marie's Mood (Live)
TTITLE5=Too Much Biz (Live)
TTITLE6=Obstacles In My Way (Live)
TTITLE7=Tired Of Sleeping Alone (Live)
TTITLE8=On The Rise (Live)
EXTD=
EXTT0=
EXTT1=
EXTT2=
EXTT3=
EXTT4=
EXTT5=
EXTT6=
EXTT7=
EXTT8=
PLAYORDER=
